#!OML:ASF F:\VICON\USERDATA\INSTALL\rory3\rory3.ASF
:FULLY-SPECIFIED
:DEGREES
1180
root 2.01734 18.9149 -4.47054 -3.4655 -11.9264 1.96915
lowerback 6.96615 0.832776 -3.03756
upperback 1.03707 0.856964 -0.632196
thorax -2.8694 0.453049 0.973416
lowerneck -7.47208 -5.81181 -9.1321
upperneck 12.919 -7.60848 6.33809
head 5.72089 -3.7422 2.90697
rclavicle -2.80473e-015 -1.48095e-014
rhumerus -27.4273 40.1833 -93.0427
rradius 95.1368
rwrist -3.40717
rhand -42.7408 11.6077
rfingers 7.12502
rthumb -15.6087 -17.7826
lclavicle -2.80473e-015 -1.48095e-014
lhumerus -23.5788 -43.4292 87.7517
lradius 110.294
lwrist -29.6587
lhand -20.4323 34.6088
lfingers 7.12502
lthumb 5.92248 64.5061
rfemur 4.24132 20.4883 16.1221
rtibia 11.1834
rfoot -11.5517 -19.9657
rtoes -7.49684
lfemur 0 0 0
ltibia 0
lfoot 0 0
ltoes 0
1181
root 2.015 18.9151 -4.46648 -3.44647 -11.9703 1.91076
lowerback 6.89033 0.855247 -3.00011
upperback 1.05447 0.893385 -0.620371
thorax -2.81013 0.469964 0.962348
lowerneck -7.5428 -5.82327 -9.12065
upperneck 12.9594 -7.62592 6.36974
head 5.7477 -3.74673 2.91152
rclavicle -4.89197e-015 9.34288e-015
rhumerus -27.3775 40.2388 -93.005
rradius 95.064
rwrist -3.64947
rhand -42.846 11.7977
rfingers 7.12502
rthumb -15.71 -17.5846
lclavicle -4.89197e-015 9.34288e-015
lhumerus -23.2503 -43.6651 87.3576
lradius 109.988
lwrist -29.5775
lhand -20.8502 34.2332
lfingers 7.12502
lthumb 5.51899 64.1413
rfemur 4.23856 20.513 16.193
rtibia 11.1784
rfoot -11.5475 -19.9546
rtoes -7.49514
lfemur 0 0 0
ltibia 0
lfoot 0 0
ltoes 0
1182
root 2.01215 18.9148 -4.46528 -3.44896 -12.005 1.87749
lowerback 6.89778 0.87794 -3.00155
upperback 1.05379 0.923367 -0.613591
thorax -2.81631 0.484998 0.967233
lowerneck -7.61833 -5.82553 -9.17886
upperneck 13.0375 -7.63755 6.49842
head 5.79314 -3.74536 2.95819
rclavicle -1.67631e-014 -3.18055e-015
rhumerus -27.3741 40.2397 -92.9883
rradius 95.0299
rwrist -3.85935
rhand -42.7794 11.7757
rfingers 7.12502
rthumb -15.6459 -17.6117
lclavicle -1.67631e-014 -3.18055e-015
lhumerus -22.9821 -43.802 86.9773
lradius 109.76
lwrist -29.4093
lhand -21.4539 32.819
lfingers 7.12502
lthumb 4.9361 62.7416
rfemur 4.24286 20.576 16.2526
rtibia 11.1852
rfoot -11.5279 -19.9928
rtoes -7.55545
lfemur 0 0 0
ltibia 0
lfoot 0 0
ltoes 0
1183
root 2.00991 18.914 -4.46185 -3.44797 -11.9978 1.9268
lowerback 6.90432 0.876905 -3.03204
upperback 1.01913 0.917191 -0.662743
thorax -2.85522 0.482832 0.933785
lowerneck -7.63238 -5.80692 -9.21421
upperneck 13.058 -7.62928 6.64502
head 5.80808 -3.73318 3.01068
rclavicle 2.86064e-014 -7.05686e-015
rhumerus -27.474 40.2298 -93.0819
rradius 95.0089
rwrist -3.94283
rhand -42.8191 11.8871
rfingers 7.12502
rthumb -15.6841 -17.4972
lclavicle 2.86064e-014 -7.05686e-015
lhumerus -22.924 -43.9865 86.6868
lradius 109.73
lwrist -29.1785
lhand -21.4519 32.3674
lfingers 7.12502
lthumb 4.93804 62.2899
rfemur 4.25345 20.5833 16.203
rtibia 11.1839
rfoot -11.5595 -20.0036
rtoes -7.45743
lfemur 0 0 0
ltibia 0
lfoot 0 0
ltoes 0
1184
root 2.0091 18.9139 -4.45503 -3.43712 -11.9767 1.96106
lowerback 6.88516 0.859662 -2.99804
upperback 0.987745 0.894852 -0.727094
thorax -2.87456 0.471634 0.850409
lowerneck -7.72748 -5.79139 -9.20708
upperneck 13.1009 -7.61807 6.74589
head 5.84028 -3.71884 3.03992
rclavicle -1.54058e-014 4.77083e-015
rhumerus -27.5665 40.2479 -93.221
rradius 95.004
rwrist -3.96888
rhand -42.8784 11.7721
rfingers 7.12502
rthumb -15.7413 -17.6078
lclavicle -1.54058e-014 4.77083e-015
lhumerus -23.0386 -44.0228 86.4368
lradius 109.785
lwrist -28.5052
lhand -20.9588 32.1199
lfingers 7.12502
lthumb 5.41417 62.0307
rfemur 4.25073 20.5122 16.15
rtibia 11.2075
rfoot -11.6021 -19.9556
rtoes -7.37708
lfemur 0 0 0
ltibia 0
lfoot 0 0
ltoes 0
1185
root 2.00853 18.9143 -4.44992 -3.43473 -11.9918 1.92259
lowerback 6.89745 0.861905 -2.92584
upperback 0.948028 0.901367 -0.744818
thorax -2.92133 0.474977 0.790494
lowerneck -7.80658 -5.81141 -9.19692
upperneck 13.1849 -7.64915 6.77809
head 5.88353 -3.72981 3.0433
rclavicle 4.38196e-014 -1.19271e-015
rhumerus -27.7061 40.2594 -93.3497
rradius 95.021
rwrist -4.0305
rhand -42.7925 11.1465
rfingers 7.12502
rthumb -15.6585 -18.2399
lclavicle 4.38196e-014 -1.19271e-015
lhumerus -23.2749 -43.9703 86.2861
lradius 109.691
lwrist -28.0295
lhand -20.9126 31.5159
lfingers 7.12502
lthumb 5.4587 61.4256
rfemur 4.24834 20.4304 16.1818
rtibia 11.2494
rfoot -11.9787 -19.8563
rtoes -6.49188
lfemur 0 0 0
ltibia 0
lfoot 0 0
ltoes 0
1186
root 2.00711 18.9143 -4.44737 -3.43262 -11.9892 1.89656
lowerback 6.92871 0.867903 -2.89266
upperback 0.900331 0.909119 -0.761083
thorax -2.98761 0.479597 0.75348
lowerneck -7.84629 -5.83306 -9.19652
upperneck 13.2846 -7.68791 6.82585
head 5.9266 -3.74477 3.05347
rclavicle -2.05494e-014 1.39149e-015
rhumerus -27.8515 40.2294 -93.4569
rradius 95.0307
rwrist -4.09359
rhand -42.7216 10.5511
rfingers 7.12502
rthumb -15.5903 -18.8406
lclavicle -2.05494e-014 1.39149e-015
lhumerus -23.3322 -44.0363 86.0832
lradius 109.576
lwrist -27.7018
lhand -21.0205 30.9552
lfingers 7.12502
lthumb 5.35453 60.8676
rfemur 4.26306 20.3431 16.2053
rtibia 11.2723
rfoot -13.0439 -19.7399
rtoes -3.73572
lfemur 0 0 0
ltibia 0
lfoot 0 0
ltoes 0
1187
root 2.00529 18.9136 -4.44429 -3.4522 -11.9706 1.91212
lowerback 6.92519 0.871842 -2.91984
upperback 0.920681 0.912352 -0.776528
thorax -2.96489 0.480968 0.752718
lowerneck -8.02837 -5.84465 -9.20032
upperneck 13.4045 -7.70228 6.88335
head 5.99909 -3.7442 3.06583
rclavicle -2.19719e-014 1.05356e-014
rhumerus -27.8233 40.1823 -93.4294
rradius 95.0197
rwrist -4.10834
rhand -42.6497 10.218
rfingers 7.12502
rthumb -15.521 -19.1791
lclavicle -2.19719e-014 1.05356e-014
lhumerus -23.0808 -44.1519 85.7516
lradius 109.464
lwrist -27.3326
lhand -21.1381 30.6201
lfingers 7.12502
lthumb 5.24104 60.5353
rfemur 4.29919 20.3247 16.2012
rtibia 11.2781
rfoot -13.0773 -19.7404
rtoes -3.59879
lfemur 0 0 0
ltibia 0
lfoot 0 0
ltoes 0
